<?xml version="1.0" encoding="UTF-8"?>
<svg width="2257px" height="718px" viewBox="0 0 2257 718" version="1.1" xmlns="http://www.w3.org/2000/svg" xmlns:xlink="http://www.w3.org/1999/xlink">
    <title>Mod-dark</title>
    <g id="Page-1" stroke="none" stroke-width="1" fill="none" fill-rule="evenodd">
        <g id="Artboard-Copy-7" transform="translate(-1553, -2191)" fill="#000117" fill-rule="nonzero">
            <path d="M3454.56679,2897.17 C3388.70546,2897.17 3336.66879,2876.97667 3298.45679,2836.59 C3260.24479,2796.20333 3241.13879,2734.38067 3241.13879,2651.122 C3241.13879,2567.86333 3260.24479,2506.04067 3298.45679,2465.654 C3336.66879,2425.26733 3388.70546,2405.074 3454.56679,2405.074 L3671.72279,2405.074 L3671.72279,2191.646 L3809.44679,2191.646 L3809.44679,2686.538 C3809.44679,2757.99133 3794.06879,2810.96 3763.31279,2845.444 C3732.55679,2879.928 3687.66546,2897.17 3628.63879,2897.17 L3454.56679,2897.17 Z M3671.72279,2500.138 L3501.88679,2500.138 C3459.01479,2500.138 3427.79279,2511.94333 3408.22079,2535.554 C3388.64879,2559.16467 3378.86279,2597.68733 3378.86279,2651.122 C3378.86279,2704.55667 3388.64879,2742.924 3408.22079,2766.224 C3427.79279,2789.524 3459.01479,2801.174 3501.88679,2801.174 L3561.74679,2801.174 C3601.51213,2801.174 3629.78279,2791.854 3646.55879,2773.214 C3663.33479,2754.574 3671.72279,2724.12867 3671.72279,2681.878 L3671.72279,2500.138 Z M2840.84302,2897.1655 C2774.97707,2897.1655 2722.93753,2876.97105 2684.72285,2836.58155 C2646.50816,2796.19205 2627.40111,2734.36597 2627.40111,2651.10146 C2627.40111,2567.83695 2646.50816,2506.01087 2684.72285,2465.62137 C2722.93753,2425.23187 2774.97707,2405.03742 2840.84302,2405.03742 L2982.30177,2405.03742 C3047.54635,2405.03742 3099.43055,2425.38721 3137.95592,2466.0874 C3176.48129,2506.78759 3195.74369,2568.45833 3195.74369,2651.10146 C3195.74369,2734.36597 3176.48129,2796.19205 3137.95592,2836.58155 C3099.43055,2876.97105 3047.54635,2897.1655 2982.30177,2897.1655 L2840.84302,2897.1655 Z M2934.98116,2500.10762 L2888.16363,2500.10762 C2845.28862,2500.10762 2814.0649,2511.9136 2794.49153,2535.52592 C2786.95935,2544.61235 2780.87646,2555.90709 2776.24282,2569.41019 L2775.92411,2570.34542 L2775.88611,2570.54968 C2772.60925,2587.91547 2773.5759,2588.29761 2804.97748,2588.30356 L2908.00264,2588.30364 C2908.16519,2588.29899 2908.32741,2588.30043 2908.48928,2588.30329 L2910.25972,2588.30364 L2946.00264,2588.30364 C2946.16519,2588.29899 2946.32741,2588.30043 2946.48928,2588.30329 L2948.25972,2588.30364 C2966.1415,2588.30364 2979.16391,2593.22891 2987.32733,2603.0796 C2995.49075,2612.93029 2999.5724,2629.00222 2999.5724,2651.29588 C2999.5724,2673.58954 2995.49075,2689.59667 2987.32733,2699.31774 C2979.16391,2709.03881 2966.1415,2713.89928 2948.25972,2713.89928 L2912.53395,2713.89928 C2912.15184,2713.89928 2911.77195,2713.89708 2911.39426,2713.89267 C2911.01883,2713.89707 2910.64038,2713.89928 2910.25972,2713.89928 L2874.53395,2713.89928 C2856.57974,2713.89928 2843.50459,2709.03881 2835.3081,2699.31774 C2814.99986,2675.23207 2839.40291,2651.10146 2776.1766,2651.10146 L2776.11034,2651.1014 L2765.13161,2651.10046 C2765.13161,2704.53988 2774.91815,2742.90933 2794.49153,2766.21096 C2814.0649,2789.5126 2845.28862,2801.16324 2888.16363,2801.16324 L2934.98116,2801.16324 C2977.85617,2801.16324 3009.0799,2789.5126 3028.65327,2766.21096 C3048.22664,2742.90933 3058.01318,2704.53988 3058.01318,2651.10146 C3058.01318,2597.66304 3048.22664,2559.13825 3028.65327,2535.52592 C3009.0799,2511.9136 2977.85617,2500.10762 2934.98116,2500.10762 Z M1708.722,2897.17 L1553.29,2897.17 L1748.078,2373.386 C1760.50467,2337.34867 1777.74667,2308.92267 1799.804,2288.108 C1821.86133,2267.29333 1849.666,2256.886 1916.266,2256.886 C1982.866,2256.886 2015.816,2269.468 2039.116,2294.632 C2062.416,2319.796 2074.066,2352.882 2074.066,2393.89 L2074.066,2765.758 C2074.066,2790.64871 2092.17376,2805.86747 2103.17,2775.078 L2256.018,2373.386 C2268.44467,2337.34867 2285.68667,2308.92267 2307.744,2288.108 C2329.80133,2267.29333 2357.606,2256.886 2424.206,2256.886 C2490.806,2256.886 2523.756,2269.468 2547.056,2294.632 C2570.356,2319.796 2582.006,2352.882 2582.006,2393.89 L2582.006,2897.17 L2433.098,2897.17 L2433.098,2399.482 C2433.098,2370.17 2414.52804,2365.19669 2404.926,2390.162 L2252.078,2791.854 C2239.65133,2827.89133 2222.254,2856.31733 2199.886,2877.132 C2177.518,2897.94667 2127.20867,2908.354 2084.958,2908.354 C2038.358,2908.354 1983.56333,2895.772 1960.574,2870.608 C1937.58467,2845.444 1926.09,2812.04733 1926.09,2770.418 L1926.09,2399.482 C1926.09,2370.386 1906.52648,2365.35674 1896.986,2390.162 L1708.722,2897.17 Z" id="Mod-dark"></path>
        </g>
    </g>
</svg>